@startuml
skinparam backgroundColor #FFFFFF
skinparam classBackgroundColor #F1F8E9
skinparam classBorderColor #33691E
skinparam shadowing true
[*] --> OnHold
OnHold --> Shipped : cancel
Shipped --> Pending : process
Pending --> Active : process
Pending : entry / log medicalrecord
OnHold --> Active : revert
Active --> [*]
@enduml