@startuml
skinparam backgroundColor #FFFFFF
skinparam roundCorner 15
skinparam defaultFontSize 11
[*] --> Rejected
Rejected --> Approved : update
Approved --> Reviewed : submit
Approved : entry / log loan
Reviewed --> Processing : process
Reviewed : entry / log loan
Processing --> Created : submit
Created --> OnHold : confirm
OnHold --> [*]
@enduml